<svg width="33" height="33" viewBox="0 0 33 33" fill="none" xmlns="http://www.w3.org/2000/svg">
<path d="M10.7933 4.04736H6.74582C6.03018 4.04736 5.34384 4.33165 4.83781 4.83769C4.33177 5.34372 4.04749 6.03005 4.04749 6.7457V10.7932M28.3325 10.7932V6.7457C28.3325 6.03005 28.0482 5.34372 27.5422 4.83769C27.0361 4.33165 26.3498 4.04736 25.6342 4.04736H21.5867M21.5867 28.3324H25.6342C26.3498 28.3324 27.0361 28.0481 27.5422 27.542C28.0482 27.036 28.3325 26.3497 28.3325 25.634V21.5865M4.04749 21.5865V25.634C4.04749 26.3497 4.33177 27.036 4.83781 27.542C5.34384 28.0481 6.03018 28.3324 6.74582 28.3324H10.7933" stroke="#9EFF00" stroke-width="2.02375" stroke-linecap="round" stroke-linejoin="round"/>
</svg>
