<svg width="275" height="96" viewBox="0 0 275 96" fill="none" xmlns="http://www.w3.org/2000/svg">
<path d="M50.1721 74.8112V73.7701H58.6412V74.8112H54.9573V87.7852H53.8561V74.8112H50.1721ZM73.2482 87.7852L71.3061 83.0801H65.2796L63.3576 87.7852H62.1162L68.3029 73.2295L74.4895 87.7852H73.2482ZM68.3029 75.7723L65.7201 82.039H70.8856L68.3029 75.7723ZM78.5425 74.8112V73.7701H87.0116V74.8112H83.3276V87.7852H82.2264V74.8112H78.5425ZM93.1871 74.8112V73.7701H101.656V74.8112H97.9722V87.7852H96.8711V74.8112H93.1871ZM106.829 80.7776C106.829 79.7499 107.003 78.8022 107.35 77.9346C107.697 77.0536 108.184 76.2928 108.811 75.6521C109.439 74.9981 110.173 74.4909 111.014 74.1305C111.868 73.7701 112.796 73.5899 113.797 73.5899C114.798 73.5899 115.719 73.7701 116.56 74.1305C117.414 74.4909 118.155 74.9981 118.782 75.6521C119.409 76.2928 119.896 77.0536 120.244 77.9346C120.591 78.8022 120.764 79.7499 120.764 80.7776C120.764 81.8054 120.591 82.7598 120.244 83.6407C119.896 84.5083 119.409 85.2691 118.782 85.9232C118.155 86.5638 117.414 87.0644 116.56 87.4248C115.719 87.7852 114.798 87.9653 113.797 87.9653C112.796 87.9653 111.868 87.7852 111.014 87.4248C110.173 87.0644 109.439 86.5638 108.811 85.9232C108.184 85.2691 107.697 84.5083 107.35 83.6407C107.003 82.7598 106.829 81.8054 106.829 80.7776ZM107.99 80.7776C107.99 81.9389 108.237 82.98 108.731 83.901C109.238 84.822 109.926 85.5494 110.793 86.0833C111.674 86.6039 112.675 86.8642 113.797 86.8642C114.918 86.8642 115.912 86.6039 116.78 86.0833C117.661 85.5494 118.348 84.822 118.842 83.901C119.336 82.98 119.583 81.9389 119.583 80.7776C119.583 79.603 119.336 78.5619 118.842 77.6543C118.348 76.7333 117.661 76.0125 116.78 75.492C115.912 74.958 114.918 74.6911 113.797 74.6911C112.675 74.6911 111.674 74.958 110.793 75.492C109.926 76.0125 109.238 76.7333 108.731 77.6543C108.237 78.5619 107.99 79.603 107.99 80.7776ZM127.515 80.7776C127.515 79.7499 127.689 78.8022 128.036 77.9346C128.383 77.0536 128.87 76.2928 129.498 75.6521C130.125 74.9981 130.859 74.4909 131.7 74.1305C132.554 73.7701 133.482 73.5899 134.483 73.5899C135.484 73.5899 136.405 73.7701 137.246 74.1305C138.1 74.4909 138.841 74.9981 139.468 75.6521C140.096 76.2928 140.583 77.0536 140.93 77.9346C141.277 78.8022 141.45 79.7499 141.45 80.7776C141.45 81.8054 141.277 82.7598 140.93 83.6407C140.583 84.5083 140.096 85.2691 139.468 85.9232C138.841 86.5638 138.1 87.0644 137.246 87.4248C136.405 87.7852 135.484 87.9653 134.483 87.9653C133.482 87.9653 132.554 87.7852 131.7 87.4248C130.859 87.0644 130.125 86.5638 129.498 85.9232C128.87 85.2691 128.383 84.5083 128.036 83.6407C127.689 82.7598 127.515 81.8054 127.515 80.7776ZM128.677 80.7776C128.677 81.9389 128.924 82.98 129.417 83.901C129.925 84.822 130.612 85.5494 131.48 86.0833C132.361 86.6039 133.362 86.8642 134.483 86.8642C135.604 86.8642 136.598 86.6039 137.466 86.0833C138.347 85.5494 139.034 84.822 139.528 83.901C140.022 82.98 140.269 81.9389 140.269 80.7776C140.269 79.603 140.022 78.5619 139.528 77.6543C139.034 76.7333 138.347 76.0125 137.466 75.492C136.598 74.958 135.604 74.6911 134.483 74.6911C133.362 74.6911 132.361 74.958 131.48 75.492C130.612 76.0125 129.925 76.7333 129.417 77.6543C128.924 78.5619 128.677 79.603 128.677 80.7776ZM160.111 83.7408C160.337 84.3281 160.611 84.8687 160.931 85.3626C161.252 85.8431 161.652 86.2235 162.133 86.5038C162.613 86.7841 163.194 86.9242 163.875 86.9242C164.782 86.9242 165.49 86.6773 165.997 86.1834C166.517 85.6762 166.778 85.0355 166.778 84.2614C166.778 83.5806 166.624 83.0334 166.317 82.6196C166.01 82.2058 165.61 81.8721 165.116 81.6185C164.635 81.3516 164.128 81.118 163.594 80.9178C163.194 80.771 162.773 80.5974 162.333 80.3972C161.906 80.1837 161.505 79.9301 161.132 79.6364C160.758 79.3294 160.451 78.9623 160.211 78.5352C159.984 78.1081 159.87 77.5942 159.87 76.9936C159.87 76.3128 160.03 75.7189 160.351 75.2117C160.671 74.7044 161.112 74.3107 161.672 74.0304C162.246 73.7367 162.9 73.5899 163.634 73.5899C164.382 73.5899 165.022 73.7301 165.556 74.0104C166.104 74.2907 166.557 74.6444 166.918 75.0715C167.278 75.4986 167.552 75.9391 167.739 76.3929L166.778 76.9335C166.618 76.5731 166.404 76.2194 166.137 75.8724C165.87 75.5253 165.53 75.2383 165.116 75.0114C164.702 74.7712 164.188 74.651 163.574 74.651C162.76 74.651 162.133 74.8646 161.692 75.2917C161.252 75.7055 161.032 76.2261 161.032 76.8534C161.032 77.6276 161.312 78.2549 161.872 78.7354C162.446 79.216 163.301 79.6564 164.435 80.0569C164.956 80.2437 165.483 80.4973 166.017 80.8177C166.564 81.138 167.018 81.5651 167.378 82.099C167.739 82.633 167.919 83.3137 167.919 84.1412C167.919 84.9021 167.739 85.5694 167.378 86.1434C167.018 86.7173 166.531 87.1645 165.917 87.4848C165.303 87.8052 164.615 87.9653 163.855 87.9653C163.054 87.9653 162.34 87.7985 161.712 87.4648C161.098 87.1178 160.584 86.6706 160.171 86.1234C159.757 85.5628 159.436 84.9555 159.21 84.3014L160.111 83.7408ZM175.515 73.7701H176.617V79.6364H184.805V73.7701H185.927V87.7852H184.805V80.6775H176.617V87.7852H175.515V73.7701ZM193.465 80.7776C193.465 79.7499 193.639 78.8022 193.986 77.9346C194.333 77.0536 194.82 76.2928 195.447 75.6521C196.075 74.9981 196.809 74.4909 197.65 74.1305C198.504 73.7701 199.432 73.5899 200.433 73.5899C201.434 73.5899 202.355 73.7701 203.196 74.1305C204.05 74.4909 204.791 74.9981 205.418 75.6521C206.045 76.2928 206.532 77.0536 206.88 77.9346C207.227 78.8022 207.4 79.7499 207.4 80.7776C207.4 81.8054 207.227 82.7598 206.88 83.6407C206.532 84.5083 206.045 85.2691 205.418 85.9232C204.791 86.5638 204.05 87.0644 203.196 87.4248C202.355 87.7852 201.434 87.9653 200.433 87.9653C199.432 87.9653 198.504 87.7852 197.65 87.4248C196.809 87.0644 196.075 86.5638 195.447 85.9232C194.82 85.2691 194.333 84.5083 193.986 83.6407C193.639 82.7598 193.465 81.8054 193.465 80.7776ZM194.626 80.7776C194.626 81.9389 194.873 82.98 195.367 83.901C195.874 84.822 196.562 85.5494 197.429 86.0833C198.31 86.6039 199.311 86.8642 200.433 86.8642C201.554 86.8642 202.548 86.6039 203.416 86.0833C204.297 85.5494 204.984 84.822 205.478 83.901C205.972 82.98 206.219 81.9389 206.219 80.7776C206.219 79.603 205.972 78.5619 205.478 77.6543C204.984 76.7333 204.297 76.0125 203.416 75.492C202.548 74.958 201.554 74.6911 200.433 74.6911C199.311 74.6911 198.31 74.958 197.429 75.492C196.562 76.0125 195.874 76.7333 195.367 77.6543C194.873 78.5619 194.626 79.603 194.626 80.7776ZM214.952 73.7701H218.236C219.117 73.7701 219.898 73.9369 220.578 74.2706C221.272 74.6043 221.82 75.0782 222.22 75.6922C222.621 76.3062 222.821 77.047 222.821 77.9146C222.821 78.7688 222.621 79.5096 222.22 80.1369C221.82 80.7509 221.272 81.2248 220.578 81.5585C219.898 81.8922 219.117 82.059 218.236 82.059H216.053V87.7852H214.952V73.7701ZM218.236 74.8112H216.053V81.0179H218.236C219.264 81.0179 220.098 80.7576 220.738 80.237C221.379 79.7031 221.7 78.929 221.7 77.9146C221.7 76.9001 221.379 76.1326 220.738 75.6121C220.098 75.0782 219.264 74.8112 218.236 74.8112Z" fill="#BB8C5F"/>
<path d="M5.34058e-05 55.7744L4.12842 59.9028L8.25678 55.7744L4.12842 51.646L5.34058e-05 55.7744ZM274.257 55.7744L270.128 51.646L266 55.7744L270.128 59.9028L274.257 55.7744ZM4.12842 56.4895L270.128 56.4894L270.128 55.0593L4.12842 55.0594L4.12842 56.4895Z" fill="#BB8C5F"/>
<path d="M40.5819 40.571H40.7964C40.9966 40.571 41.1826 40.4852 41.3542 40.3135C41.5258 40.1419 41.6688 39.9417 41.7832 39.7129C41.9262 39.4841 42.0263 39.241 42.0835 38.9835C42.1407 38.6975 42.1693 38.4401 42.1693 38.2113V15.6442L31.1003 41.4719L20.589 16.9742V38.2113C20.589 38.4401 20.6176 38.6975 20.6748 38.9835C20.732 39.241 20.8178 39.4841 20.9322 39.7129C21.0753 39.9417 21.2326 40.1419 21.4042 40.3135C21.5758 40.4852 21.776 40.571 22.0048 40.571H22.2193V41H17.5429V40.571H17.7574C17.9576 40.571 18.1435 40.4852 18.3151 40.3135C18.4868 40.1419 18.6298 39.9417 18.7442 39.7129C18.8586 39.4841 18.9444 39.241 19.0016 38.9835C19.0588 38.6975 19.0874 38.4401 19.0874 38.2113V15.3439C19.0874 15.1437 19.0588 14.9148 19.0016 14.6574C18.9444 14.4 18.8586 14.1569 18.7442 13.9281C18.6298 13.6992 18.4868 13.5133 18.3151 13.3703C18.1435 13.1987 17.9576 13.1129 17.7574 13.1129H17.5429V12.6839H21.919L31.8726 36.1519L41.8261 12.6839H46.6742V13.1129H46.4597C46.2308 13.1129 46.0306 13.1987 45.859 13.3703C45.6874 13.5133 45.5301 13.6992 45.3871 13.9281C45.2727 14.1569 45.1869 14.4 45.1297 14.6574C45.0725 14.9148 45.0439 15.1437 45.0439 15.3439V38.2113C45.0439 38.4401 45.0725 38.6975 45.1297 38.9835C45.1869 39.241 45.2727 39.4841 45.3871 39.7129C45.5301 39.9417 45.6874 40.1419 45.859 40.3135C46.0306 40.4852 46.2308 40.571 46.4597 40.571H46.6742V41H40.5819V40.571ZM56.6854 40.571H56.8999V41H50.8505V40.571H51.0651C51.2653 40.571 51.4512 40.4852 51.6228 40.3135C51.7944 40.1419 51.9374 39.9417 52.0518 39.7129C52.1948 39.4841 52.2949 39.241 52.3521 38.9835C52.4094 38.6975 52.438 38.4401 52.438 38.2113V15.3439C52.438 15.1437 52.4094 14.9148 52.3521 14.6574C52.2949 14.4 52.1948 14.1569 52.0518 13.9281C51.9374 13.6992 51.7944 13.5133 51.6228 13.3703C51.4512 13.1987 51.2653 13.1129 51.0651 13.1129H50.8505V12.6839H58.3157C61.1759 12.6839 63.3783 13.2416 64.9228 14.3571C66.4959 15.4726 67.2825 17.1172 67.2825 19.291C67.2825 20.3778 67.0966 21.336 66.7247 22.1655C66.3815 22.9663 65.9096 23.6671 65.3089 24.2677C64.7083 24.8398 63.9932 25.3117 63.1638 25.6835C62.3629 26.0268 61.5048 26.2842 60.5896 26.4558L63.6786 31.1752C64.4223 32.3192 65.1802 33.449 65.9525 34.5645C66.7247 35.6514 67.4827 36.7812 68.2263 37.9539C68.4266 38.2399 68.6411 38.5402 68.8699 38.8548C69.1273 39.1695 69.3847 39.4555 69.6421 39.7129C69.9282 39.9703 70.2142 40.1848 70.5002 40.3565C70.8148 40.4995 71.1295 40.571 71.4441 40.571V41H69.5992C68.4552 41 67.5113 40.7283 66.7676 40.1848C66.0526 39.6128 65.4519 38.9549 64.9657 38.2113C63.6786 36.3235 62.3915 34.4072 61.1044 32.4623C59.8459 30.5173 58.5874 28.601 57.3289 26.7132C57.0143 26.6846 56.6711 26.656 56.2992 26.6274C55.956 26.5702 55.6271 26.513 55.3125 26.4558V38.2113C55.3125 38.4401 55.3411 38.6975 55.3983 38.9835C55.4555 39.241 55.5413 39.4841 55.6557 39.7129C55.7987 39.9417 55.9417 40.1419 56.0847 40.3135C56.2563 40.4852 56.4566 40.571 56.6854 40.571ZM55.3125 14.1426V25.04H55.527C55.7558 25.0686 56.1133 25.0972 56.5996 25.1258C57.1144 25.1258 57.7437 25.1258 58.4873 25.1258C59.088 25.1258 59.7172 25.04 60.3751 24.8684C61.0615 24.6682 61.6908 24.3535 62.2628 23.9245C62.8634 23.4669 63.3497 22.8805 63.7215 22.1655C64.1219 21.4504 64.3222 20.5495 64.3222 19.4626C64.3222 18.3757 64.1076 17.489 63.6786 16.8026C63.2782 16.1161 62.7061 15.5727 61.9625 15.1723C61.2474 14.7718 60.3751 14.5001 59.3454 14.3571C58.3157 14.2141 57.1859 14.1426 55.956 14.1426H55.3125ZM74.3203 39.1552C74.3203 38.5831 74.5062 38.0969 74.878 37.6965C75.2784 37.296 75.7647 37.0958 76.3367 37.0958C76.9088 37.0958 77.395 37.296 77.7954 37.6965C78.1959 38.0969 78.3961 38.5831 78.3961 39.1552C78.3961 39.7272 78.1959 40.2134 77.7954 40.6139C77.395 40.9857 76.9088 41.1716 76.3367 41.1716C75.7647 41.1716 75.2784 40.9857 74.878 40.6139C74.5062 40.2134 74.3203 39.7272 74.3203 39.1552ZM93.7528 40.571H93.9673C94.1675 40.571 94.3534 40.4852 94.525 40.3135C94.6966 40.1419 94.8396 39.9417 94.954 39.7129C95.0971 39.4841 95.1972 39.241 95.2544 38.9835C95.3116 38.6975 95.3402 38.4401 95.3402 38.2113V15.3439C95.3402 15.1437 95.3116 14.9148 95.2544 14.6574C95.1972 14.4 95.1114 14.1569 94.9969 13.9281C94.8825 13.6992 94.7395 13.5133 94.5679 13.3703C94.3963 13.1987 94.1961 13.1129 93.9673 13.1129H93.7528V12.6839H102.033C104.293 12.6839 106.323 13.0843 108.125 13.8852C109.927 14.6574 111.443 15.7157 112.673 17.06C113.932 18.3757 114.89 19.8916 115.548 21.6077C116.205 23.3239 116.534 25.1115 116.534 26.9706C116.534 28.7154 116.22 30.4315 115.59 32.119C114.961 33.778 114.017 35.2653 112.759 36.581C111.5 37.8967 109.927 38.9692 108.04 39.7987C106.152 40.5996 103.964 41 101.475 41H93.7528V40.571ZM113.617 27.6142C113.617 25.7837 113.288 24.0532 112.63 22.4229C111.972 20.7926 111.043 19.3768 109.841 18.1755C108.669 16.9456 107.267 15.9731 105.637 15.2581C104.035 14.543 102.29 14.1855 100.403 14.1855H98.2147V39.4984H100.489C102.033 39.4984 103.578 39.2696 105.122 38.8119C106.695 38.3257 108.111 37.5963 109.37 36.6239C110.628 35.6228 111.643 34.3786 112.416 32.8913C113.217 31.404 113.617 29.6449 113.617 27.6142ZM126.068 40.571H126.282V41H120.233V40.571H120.448C120.648 40.571 120.834 40.4852 121.005 40.3135C121.177 40.1419 121.32 39.9417 121.434 39.7129C121.577 39.4841 121.678 39.241 121.735 38.9835C121.792 38.6975 121.821 38.4401 121.821 38.2113V15.3439C121.821 15.1437 121.792 14.9148 121.735 14.6574C121.678 14.4 121.577 14.1569 121.434 13.9281C121.32 13.6992 121.177 13.5133 121.005 13.3703C120.834 13.1987 120.648 13.1129 120.448 13.1129H120.233V12.6839H127.698C130.558 12.6839 132.761 13.2416 134.305 14.3571C135.878 15.4726 136.665 17.1172 136.665 19.291C136.665 20.3778 136.479 21.336 136.107 22.1655C135.764 22.9663 135.292 23.6671 134.691 24.2677C134.091 24.8398 133.376 25.3117 132.546 25.6835C131.745 26.0268 130.887 26.2842 129.972 26.4558L133.061 31.1752C133.805 32.3192 134.563 33.449 135.335 34.5645C136.107 35.6514 136.865 36.7812 137.609 37.9539C137.809 38.2399 138.024 38.5402 138.252 38.8548C138.51 39.1695 138.767 39.4555 139.025 39.7129C139.311 39.9703 139.597 40.1848 139.883 40.3565C140.197 40.4995 140.512 40.571 140.827 40.571V41H138.982C137.838 41 136.894 40.7283 136.15 40.1848C135.435 39.6128 134.834 38.9549 134.348 38.2113C133.061 36.3235 131.774 34.4072 130.487 32.4623C129.228 30.5173 127.97 28.601 126.711 26.7132C126.397 26.6846 126.054 26.656 125.682 26.6274C125.339 26.5702 125.01 26.513 124.695 26.4558V38.2113C124.695 38.4401 124.724 38.6975 124.781 38.9835C124.838 39.241 124.924 39.4841 125.038 39.7129C125.181 39.9417 125.324 40.1419 125.467 40.3135C125.639 40.4852 125.839 40.571 126.068 40.571ZM124.695 14.1426V25.04H124.91C125.138 25.0686 125.496 25.0972 125.982 25.1258C126.497 25.1258 127.126 25.1258 127.87 25.1258C128.471 25.1258 129.1 25.04 129.758 24.8684C130.444 24.6682 131.073 24.3535 131.645 23.9245C132.246 23.4669 132.732 22.8805 133.104 22.1655C133.504 21.4504 133.705 20.5495 133.705 19.4626C133.705 18.3757 133.49 17.489 133.061 16.8026C132.661 16.1161 132.089 15.5727 131.345 15.1723C130.63 14.7718 129.758 14.5001 128.728 14.3571C127.698 14.2141 126.568 14.1426 125.339 14.1426H124.695ZM143.574 12.6839H149.709V13.1129H149.495C149.295 13.1129 149.109 13.1987 148.937 13.3703C148.765 13.5133 148.622 13.6992 148.508 13.9281C148.394 14.1283 148.293 14.3714 148.208 14.6574C148.15 14.9148 148.122 15.1437 148.122 15.3439V38.2113C148.122 38.4401 148.15 38.6975 148.208 38.9835C148.265 39.241 148.351 39.4841 148.465 39.7129C148.608 39.9417 148.751 40.1419 148.894 40.3135C149.066 40.4852 149.266 40.571 149.495 40.571H149.709V41H143.574V40.571H143.789C144.017 40.571 144.218 40.4995 144.389 40.3565C144.561 40.1848 144.704 39.9846 144.818 39.7558C144.961 39.4984 145.061 39.241 145.119 38.9835C145.176 38.6975 145.204 38.4401 145.204 38.2113V15.3439C145.204 15.1437 145.176 14.9148 145.119 14.6574C145.061 14.4 144.961 14.1569 144.818 13.9281C144.704 13.6992 144.561 13.5133 144.389 13.3703C144.218 13.1987 144.017 13.1129 143.789 13.1129H143.574V12.6839ZM171.211 33.4061C171.211 34.8362 170.925 36.0661 170.353 37.0958C169.781 38.0969 169.037 38.912 168.122 39.5413C167.235 40.1705 166.22 40.6282 165.076 40.9142C163.96 41.2002 162.845 41.3432 161.729 41.3432C160.585 41.3432 159.598 41.2288 158.769 41C157.939 40.7712 157.181 40.5567 156.495 40.3565C156.037 40.2134 155.623 40.099 155.251 40.0132C154.879 39.8988 154.507 39.8416 154.135 39.8416V34.9506H154.564C154.564 36.0375 154.836 36.9099 155.38 37.5677C155.952 38.197 156.609 38.6832 157.353 39.0265C158.097 39.3697 158.84 39.5985 159.584 39.7129C160.328 39.7987 160.871 39.8416 161.214 39.8416C162.444 39.8416 163.503 39.67 164.389 39.3268C165.276 38.9549 166.005 38.483 166.577 37.911C167.149 37.3103 167.564 36.6525 167.821 35.9374C168.108 35.2224 168.251 34.493 168.251 33.7494C168.251 32.8055 168.05 32.0189 167.65 31.3897C167.249 30.7318 166.72 30.1598 166.062 29.6735C165.433 29.1873 164.704 28.7726 163.874 28.4294C163.045 28.0861 162.201 27.7429 161.343 27.3997C160.371 27.0278 159.412 26.6417 158.469 26.2413C157.525 25.8409 156.681 25.3546 155.937 24.7826C155.194 24.1819 154.593 23.4812 154.135 22.6803C153.678 21.8509 153.449 20.8355 153.449 19.6342C153.449 18.3757 153.692 17.2888 154.178 16.3735C154.664 15.4297 155.308 14.6574 156.109 14.0568C156.938 13.4561 157.868 13.0128 158.898 12.7268C159.956 12.4122 161.028 12.2548 162.115 12.2548C162.859 12.2548 163.56 12.312 164.218 12.4265C164.875 12.5123 165.505 12.6267 166.105 12.7697C166.592 12.8841 167.064 12.9842 167.521 13.07C167.979 13.1272 168.422 13.1558 168.851 13.1558V17.5748H168.422C168.365 16.0875 167.779 15.0864 166.663 14.5716C165.548 14.0282 164.003 13.7565 162.03 13.7565C160.885 13.7565 159.942 13.9567 159.198 14.3571C158.483 14.7289 157.911 15.2009 157.482 15.7729C157.053 16.3163 156.752 16.917 156.581 17.5748C156.438 18.2041 156.366 18.7618 156.366 19.2481C156.366 20.0489 156.538 20.7354 156.881 21.3074C157.253 21.8795 157.739 22.38 158.34 22.809C158.941 23.2381 159.627 23.6242 160.399 23.9674C161.2 24.3106 162.03 24.6396 162.888 24.9542C163.86 25.326 164.847 25.7265 165.848 26.1555C166.849 26.5845 167.736 27.1137 168.508 27.7429C169.309 28.3722 169.952 29.1444 170.439 30.0597C170.953 30.9749 171.211 32.0904 171.211 33.4061ZM180.788 40.571H181.003V41H174.868V40.571H175.082C175.311 40.571 175.511 40.4852 175.683 40.3135C175.854 40.1419 175.997 39.9417 176.112 39.7129C176.255 39.4841 176.355 39.241 176.412 38.9835C176.469 38.6975 176.498 38.4401 176.498 38.2113V15.3439C176.498 15.1437 176.469 14.9148 176.412 14.6574C176.355 14.4 176.255 14.1569 176.112 13.9281C175.997 13.6992 175.854 13.5133 175.683 13.3703C175.511 13.1987 175.325 13.1129 175.125 13.1129H174.911V12.6839H181.046V13.1129H180.831C180.602 13.1129 180.402 13.1987 180.231 13.3703C180.059 13.5133 179.902 13.6992 179.759 13.9281C179.644 14.1569 179.544 14.4 179.458 14.6574C179.401 14.9148 179.373 15.1437 179.373 15.3439V25.2974L190.27 14.4858C190.442 14.2856 190.527 14.0568 190.527 13.7994C190.527 13.3417 190.356 13.1129 190.013 13.1129H189.798V12.6839H195.032V13.1129H194.818C194.417 13.1129 194.003 13.2559 193.573 13.5419C193.144 13.828 192.715 14.1855 192.286 14.6145L183.277 23.5813L192.758 37.9539C192.787 38.0111 192.916 38.1827 193.144 38.4687C193.373 38.7547 193.645 39.0551 193.96 39.3697C194.303 39.6843 194.675 39.9703 195.075 40.2277C195.504 40.4566 195.933 40.571 196.362 40.571V41H195.333C194.474 41 193.745 40.9571 193.144 40.8713C192.572 40.7569 192.072 40.5853 191.643 40.3565C191.214 40.1276 190.828 39.8416 190.484 39.4984C190.17 39.1552 189.841 38.7261 189.498 38.2113L181.174 25.6406L179.373 27.4855V38.2113C179.373 38.4401 179.401 38.6832 179.458 38.9406C179.544 39.1981 179.644 39.4555 179.759 39.7129C179.873 39.9417 180.016 40.1419 180.188 40.3135C180.359 40.4852 180.56 40.571 180.788 40.571ZM199.168 40.571H199.383C199.612 40.571 199.812 40.4995 199.983 40.3565C200.155 40.1848 200.298 39.9846 200.413 39.7558C200.556 39.527 200.656 39.2839 200.713 39.0265C200.799 38.769 200.842 38.5259 200.842 38.2971V15.3439C200.842 15.1437 200.799 14.9148 200.713 14.6574C200.656 14.4 200.556 14.1569 200.413 13.9281C200.298 13.6992 200.155 13.5133 199.983 13.3703C199.812 13.1987 199.612 13.1129 199.383 13.1129H199.168V12.6839H215.686V16.6739H215.257C215.2 16.016 214.942 15.444 214.485 14.9577C214.027 14.4429 213.312 14.1855 212.34 14.1855H203.716V25.04H210.838C211.496 25.04 212.039 24.8398 212.468 24.4394C212.926 24.0389 213.155 23.567 213.155 23.0235H213.584V28.3865H213.155C213.155 27.8716 212.94 27.4283 212.511 27.0565C212.082 26.6846 211.524 26.4987 210.838 26.4987H203.716V39.4984H213.112C213.655 39.4984 214.127 39.3697 214.528 39.1123C214.928 38.8548 215.257 38.5545 215.514 38.2113C215.8 37.8395 216.001 37.4533 216.115 37.0529C216.258 36.6239 216.33 36.2663 216.33 35.9803H216.759V41H199.168V40.571ZM219.991 40.571H220.206C220.435 40.571 220.635 40.4995 220.807 40.3565C220.978 40.1848 221.121 39.9846 221.236 39.7558C221.379 39.527 221.479 39.2839 221.536 39.0265C221.622 38.769 221.665 38.5259 221.665 38.2971V15.3439C221.665 15.1437 221.622 14.9148 221.536 14.6574C221.479 14.4 221.379 14.1569 221.236 13.9281C221.121 13.6992 220.978 13.5133 220.807 13.3703C220.635 13.1987 220.435 13.1129 220.206 13.1129H219.991V12.6839H226.17V13.1129H225.955C225.726 13.1129 225.526 13.1987 225.354 13.3703C225.183 13.5133 225.04 13.6992 224.925 13.9281C224.811 14.1569 224.711 14.4 224.625 14.6574C224.568 14.9148 224.539 15.1437 224.539 15.3439V39.4126H233.935C234.478 39.4126 234.95 39.2839 235.351 39.0265C235.751 38.769 236.08 38.4544 236.338 38.0826C236.624 37.6822 236.824 37.2674 236.938 36.8384C237.081 36.3808 237.153 35.966 237.153 35.5942H237.582V41H219.991V40.571ZM239.935 40.571H240.149C240.378 40.571 240.578 40.4995 240.75 40.3565C240.922 40.1848 241.065 39.9846 241.179 39.7558C241.322 39.527 241.422 39.2839 241.479 39.0265C241.565 38.769 241.608 38.5259 241.608 38.2971V15.3439C241.608 15.1437 241.565 14.9148 241.479 14.6574C241.422 14.4 241.322 14.1569 241.179 13.9281C241.065 13.6992 240.922 13.5133 240.75 13.3703C240.578 13.1987 240.378 13.1129 240.149 13.1129H239.935V12.6839H246.113V13.1129H245.898C245.669 13.1129 245.469 13.1987 245.298 13.3703C245.126 13.5133 244.983 13.6992 244.869 13.9281C244.754 14.1569 244.654 14.4 244.568 14.6574C244.511 14.9148 244.483 15.1437 244.483 15.3439V39.4126H253.878C254.422 39.4126 254.894 39.2839 255.294 39.0265C255.695 38.769 256.023 38.4544 256.281 38.0826C256.567 37.6822 256.767 37.2674 256.882 36.8384C257.025 36.3808 257.096 35.966 257.096 35.5942H257.525V41H239.935V40.571Z" fill="#BB8C5F"/>
</svg>
