<svg xmlns="http://www.w3.org/2000/svg" width="512" height="512"><path d="M473.828 34.117c2.922 2.284 4.83 4.457 6.172 7.883.336 2.805.336 2.805.375 5.875l.086 3.055c-1.088 7.249-7.37 12.257-12.345 17.194l-2.423 2.429c-2.678 2.681-5.363 5.355-8.047 8.029q-2.884 2.88-5.766 5.766-6.203 6.204-12.416 12.4-8.98 8.958-17.952 17.928-14.558 14.55-29.127 29.09a76358 76358 0 0 0-38.804 38.754A206828 206828 0 0 1 281 255c1.366 3.06 2.91 5.156 5.283 7.512l2.065 2.066 2.275 2.245 2.412 2.405q4.017 3.997 8.045 7.984 2.876 2.859 5.75 5.721 6.197 6.168 12.403 12.328c6.54 6.494 13.07 12.998 19.599 19.503l6.703 6.679 1.692 1.686q9.533 9.498 19.072 18.991l1.761 1.754q14.127 14.057 28.269 28.1 14.52 14.424 29.009 28.88a6928 6928 0 0 0 17.9 17.796q6.146 6.09 12.264 12.21 3.526 3.529 7.08 7.033c2.57 2.536 5.12 5.09 7.668 7.649l2.268 2.211c4.487 4.557 7.47 8.818 8.482 15.247-.389 6.448-2.405 10.514-7 15-3.285 2.078-6.02 2.326-9.875 2.375l-3.055.086c-7.249-1.088-12.257-7.37-17.194-12.345l-2.429-2.423c-2.681-2.678-5.355-5.363-8.029-8.047q-2.88-2.884-5.766-5.766-6.204-6.203-12.4-12.416-8.958-8.98-17.928-17.952-14.55-14.558-29.09-29.127a76358 76358 0 0 0-38.754-38.804A206828 206828 0 0 1 257 281c-3.062 1.367-5.164 2.916-7.526 5.286l-2.075 2.067-2.256 2.277-2.415 2.414a4348 4348 0 0 0-8.019 8.052q-2.871 2.878-5.746 5.754-6.193 6.203-12.377 12.414c-5.964 5.99-11.935 11.972-17.908 17.954a58861 58861 0 0 0-29.073 29.136l-1.757 1.762-26.453 26.53-1.755 1.76a58983 58983 0 0 1-28.965 29.026 18561 18561 0 0 0-17.864 17.914q-6.114 6.14-12.238 12.27-3.535 3.537-7.062 7.084-3.822 3.84-7.654 7.67l-2.256 2.277-2.075 2.067-1.783 1.79c-4.614 3.961-8.94 3.923-14.829 3.808-5.301-.568-7.754-3.09-11.289-6.812-2.348-5.058-2.596-10.017-1.625-15.5 3.159-5.495 7.406-9.681 11.884-14.124l2.423-2.429c2.678-2.681 5.363-5.355 8.047-8.029q2.884-2.88 5.766-5.766 6.203-6.204 12.416-12.4 8.98-8.958 17.952-17.928 14.558-14.55 29.127-29.09a76358 76358 0 0 0 38.804-38.754Q194.7 293.232 231 257c-1.364-3.053-2.901-5.147-5.267-7.5l-2.055-2.057-2.263-2.235-2.4-2.394c-2.663-2.655-5.333-5.302-8.003-7.95l-5.72-5.696q-6.166-6.142-12.34-12.274a15821 15821 0 0 1-19.498-19.415l-6.668-6.647-1.683-1.678a53843 53843 0 0 0-18.975-18.902l-1.752-1.745q-14.056-13.994-28.123-27.977a22067 22067 0 0 1-28.86-28.748 8134 8134 0 0 0-17.808-17.717 4313 4313 0 0 1-12.2-12.152q-3.512-3.512-7.043-7.002a1422 1422 0 0 1-7.63-7.61l-2.256-2.21c-4.653-4.712-8.24-9.218-8.547-16.145.365-4.93 1.949-8.21 5.091-11.946 4.22-3.47 7.522-4.907 13-5 7.681 1.423 12.19 5.343 17.523 10.802l2.449 2.433c2.695 2.685 5.368 5.391 8.042 8.098q2.895 2.9 5.797 5.794A3964 3964 0 0 1 96.25 71.616a7409 7409 0 0 0 17.984 18.056q14.609 14.631 29.185 29.295 14.156 14.24 28.335 28.458l1.767 1.771 8.776 8.8A69514 69514 0 0 1 255 231c3.06-1.366 5.156-2.91 7.512-5.283l2.066-2.065 2.245-2.275 2.405-2.412q3.997-4.016 7.984-8.045 2.859-2.876 5.721-5.75 6.168-6.197 12.328-12.403c6.494-6.54 12.998-13.07 19.503-19.599l6.679-6.703 1.686-1.692q9.498-9.533 18.991-19.072l1.754-1.761q14.057-14.127 28.1-28.269 14.424-14.52 28.88-29.009a6928 6928 0 0 0 17.796-17.9q6.09-6.146 12.21-12.264 3.529-3.526 7.033-7.08c2.536-2.57 5.09-5.12 7.649-7.668l2.211-2.268c7.45-7.334 16.384-11.287 26.075-5.365"/></svg>