<svg width="229" height="73" viewBox="0 0 229 73" fill="none" xmlns="http://www.w3.org/2000/svg">
<g clip-path="url(#clip0_2173_463)">
<path d="M0 0C75.57 0 151.14 0 229 0C229 24.09 229 48.18 229 73C153.43 73 77.86 73 0 73C0 48.91 0 24.82 0 0Z" fill="black"/>
<path d="M0 0C75.57 0 151.14 0 229 0C229 24.09 229 48.18 229 73C153.43 73 77.86 73 0 73C0 48.91 0 24.82 0 0ZM5.29879 4.86667C5.29879 26.1673 5.29879 47.4679 5.29879 69.414C77.5236 69.414 149.748 69.414 224.162 69.414C224.162 48.1134 224.162 26.8128 224.162 4.86667C151.937 4.86667 79.7123 4.86667 5.29879 4.86667Z" fill="#9CFC00"/>
<path d="M40.5473 21.2596C42.9041 21.2596 45.2609 21.2596 47.6891 21.2596C47.6891 30.8956 47.6891 40.5316 47.6891 50.4596C45.7125 50.4596 43.7358 50.4596 41.6992 50.4596C41.5471 49.7834 41.3951 49.1072 41.2384 48.4105C41.1624 48.2415 41.0864 48.0724 41.0081 47.8982C40.9157 48.0158 40.8233 48.1333 40.7282 48.2544C39.4696 49.7648 37.8812 50.8705 35.9891 51.024C33.428 51.0647 31.3894 50.6842 29.4889 48.6667C27.0165 45.5999 26.7729 41.8768 26.9547 37.9088C27.1949 35.0854 27.9316 32.5686 29.7193 30.4807C31.2813 29.1122 32.8593 28.5867 34.8453 28.5917C35.0179 28.5921 35.1906 28.5925 35.3684 28.5929C37.4248 28.6433 38.7133 29.3105 40.3169 30.7368C40.3929 27.6094 40.469 24.4819 40.5473 21.2596Z" fill="#FDFDFD"/>
<path d="M121.872 21.0035C124.305 21.0035 126.738 21.0035 129.244 21.0035C129.32 24.3 129.397 27.5966 129.475 30.993C129.855 30.6549 130.235 30.3168 130.627 29.9684C131.118 29.6532 131.118 29.6532 131.577 29.4081C131.73 29.3252 131.882 29.2424 132.04 29.157C133.763 28.3034 136.245 28.3439 138.053 28.9289C139.857 29.8985 140.938 31.2499 141.685 33.2982C141.934 34.1816 141.943 34.9975 141.942 35.9204C141.942 36.4049 141.942 36.4049 141.942 36.8992C141.94 37.2504 141.939 37.6016 141.938 37.9528C141.938 38.3131 141.937 38.6734 141.937 39.0338C141.936 39.9804 141.934 40.927 141.931 41.8736C141.929 42.8402 141.928 43.8069 141.927 44.7735C141.924 46.6689 141.92 48.5643 141.915 50.4596C139.559 50.4596 137.202 50.4596 134.774 50.4596C134.768 49.479 134.762 48.4984 134.756 47.488C134.747 46.5369 134.736 45.5857 134.726 44.6346C134.719 43.9742 134.714 43.3139 134.711 42.6535C134.706 41.7035 134.696 40.7537 134.684 39.8038C134.683 39.5092 134.683 39.2146 134.683 38.911C134.657 37.3255 134.621 36.2731 133.622 35.0912C132.766 34.7743 131.976 34.6923 131.088 34.8351C130.332 35.3647 129.971 35.801 129.475 36.6281C129.399 37.2644 129.399 37.2644 129.401 37.985C129.397 38.2619 129.392 38.5387 129.388 38.824C129.384 39.2718 129.384 39.2718 129.379 39.7288C129.375 40.0347 129.371 40.3406 129.366 40.6558C129.352 41.6345 129.341 42.6132 129.331 43.5919C129.322 44.2548 129.313 44.9176 129.304 45.5805C129.281 47.2068 129.263 48.8332 129.244 50.4596C126.812 50.4596 124.379 50.4596 121.872 50.4596C121.872 40.7391 121.872 31.0186 121.872 21.0035Z" fill="#9BFB00"/>
<path d="M163.816 30.8009C165.404 32.3363 166.239 34.1486 166.797 36.3719C166.911 36.7523 166.911 36.7523 167.027 37.1403C167.027 38.4928 167.027 39.8452 167.027 41.2386C162.314 41.2386 157.6 41.2386 152.743 41.2386C153.035 43.5358 153.035 43.5358 154.126 45.0807C155.259 45.8698 156.522 45.71 157.812 45.593C158.639 45.4007 158.639 45.4007 159.194 44.8246C159.422 44.1483 159.65 43.4721 159.885 42.7754C162.242 42.7754 164.599 42.7754 167.027 42.7754C166.776 45.2904 166.459 47.0031 164.666 48.6346C161.619 51.0106 158.411 51.0895 154.817 50.9719C154.612 50.9673 154.406 50.9627 154.195 50.9579C151.786 50.7896 149.365 49.5401 147.675 47.6421C145.415 44.5274 145.085 41.0229 145.371 37.1403C145.874 34.228 147.324 31.9009 149.518 30.2246C153.706 27.7962 159.874 27.6882 163.816 30.8009Z" fill="#9BFB00"/>
<path d="M61.6561 28.6397C61.9835 28.635 61.9835 28.635 62.3175 28.6302C65.4939 28.6229 68.3245 29.3655 70.6662 31.8584C72.8423 34.6575 73.0312 37.6486 73.0312 41.2386C68.2415 41.2386 63.4519 41.2386 58.5171 41.2386C58.8909 43.6567 58.8909 43.6567 60.245 45.2888C61.633 45.8124 62.9736 45.7909 64.3775 45.3368C65.1827 44.7137 65.1827 44.7137 65.8893 42.7754C68.1701 42.7754 70.4509 42.7754 72.8008 42.7754C72.8008 45.0552 72.5207 46.2554 71.1998 47.9683C69.9652 49.2942 68.689 49.9727 67.0412 50.4596C66.8917 50.5047 66.7421 50.5497 66.588 50.5962C65.2105 50.9783 63.8931 51.0616 62.4768 51.052C62.2534 51.0505 62.03 51.0491 61.7998 51.0476C58.6706 50.9887 55.935 50.1201 53.5927 47.7061C51.6194 45.359 51.3287 42.8779 51.3033 39.7978C51.2966 39.534 51.2899 39.2702 51.283 38.9984C51.2633 36.3164 51.8922 34.0866 53.4541 32.0175C55.7069 29.4832 58.5598 28.642 61.6561 28.6397Z" fill="#FBFBFB"/>
<path d="M108.971 22.5403C111.632 22.5403 114.293 22.5403 117.034 22.5403C117.053 27.4979 117.053 27.4979 117.057 29.6207C117.059 31.0659 117.063 32.511 117.069 33.9562C117.074 35.122 117.077 36.2879 117.078 37.4538C117.079 37.8973 117.08 38.3408 117.083 38.7842C117.102 42.2832 117.067 45.4879 114.831 48.2024C112.228 50.9404 108.781 51.1207 105.394 51.052C102.551 50.9215 100.053 49.9016 98.0709 47.5781C96.5236 45.3848 96.4818 43.3033 96.2998 40.4702C98.8087 40.4702 101.318 40.4702 103.902 40.4702C104.054 41.4845 104.207 42.4988 104.363 43.5439C105.624 44.1048 106.46 44.2377 107.776 43.88C108.451 43.4295 108.512 43.0973 108.74 42.2632C108.787 41.6023 108.812 40.9681 108.814 40.3073C108.817 40.0184 108.817 40.0184 108.821 39.7238C108.828 39.0904 108.832 38.4571 108.836 37.8237C108.84 37.3834 108.845 36.943 108.849 36.5026C108.861 35.3459 108.87 34.1892 108.879 33.0325C108.89 31.6433 108.904 30.2542 108.918 28.8651C108.938 26.7569 108.954 24.6486 108.971 22.5403Z" fill="#9CFC00"/>
<path d="M168.409 29.2C175.839 28.3823 175.839 28.3823 177.601 29.6986C178.553 30.9093 179.104 32.2952 179.527 33.8235C179.657 34.3722 179.657 34.3722 180.159 34.5789C180.482 33.705 180.482 33.705 180.748 32.8083C181.156 31.3198 181.677 30.0063 182.924 29.2C185.482 28.6494 188.176 28.9541 190.757 29.2C190.392 30.2741 189.949 31.037 189.302 31.9375C188.302 33.3523 187.332 34.7889 186.379 36.2439C186.184 36.5379 186.184 36.5379 185.986 36.8379C185.051 38.1656 185.051 38.1656 184.536 39.7017C184.895 40.4457 184.895 40.4457 185.487 41.1746C185.703 41.468 185.919 41.7622 186.134 42.057C186.307 42.2919 186.307 42.2919 186.484 42.5315C187.108 43.407 187.677 44.3243 188.251 45.2408C188.483 45.6097 188.715 45.9786 188.948 46.3474C189.058 46.5231 189.169 46.6989 189.283 46.8799C189.89 47.8353 190.515 48.7755 191.142 49.7152C191.448 50.2035 191.448 50.2035 191.448 50.4596C184.318 51.4553 184.318 51.4553 182.527 50.1763C180.963 48.6164 180.135 46.212 179.468 44.0561C178.875 44.66 178.48 45.3054 178.062 46.0672C177.93 46.3063 177.798 46.5453 177.663 46.7916C177.527 47.0406 177.391 47.2895 177.25 47.546C176.979 48.0405 176.707 48.5348 176.435 49.0289C176.315 49.248 176.195 49.4671 176.072 49.6928C175.782 50.2035 175.782 50.2035 175.551 50.4596C174.954 50.4823 174.362 50.4892 173.765 50.4847C173.586 50.4843 173.408 50.4839 173.224 50.4836C172.651 50.4821 172.078 50.4789 171.505 50.4757C171.118 50.4744 170.73 50.4732 170.343 50.4722C169.391 50.4693 168.44 50.4649 167.488 50.4596C168.42 48.8749 169.395 47.3364 170.411 45.8171C170.549 45.6079 170.688 45.3987 170.83 45.1831C171.504 44.1661 172.184 43.157 172.885 42.1631C173.005 41.9901 173.125 41.8172 173.248 41.6389C173.473 41.3153 173.701 40.9946 173.933 40.6772C174.277 40.2001 174.277 40.2001 174.63 39.4456C174.461 38.2496 173.602 37.265 172.945 36.3239C172.697 35.9626 172.45 35.6011 172.203 35.2393C172.073 35.0499 171.944 34.8606 171.81 34.6655C171.106 33.6269 170.42 32.5748 169.734 31.5213C169.602 31.3196 169.47 31.118 169.334 30.9102C169.213 30.7239 169.092 30.5376 168.967 30.3456C168.86 30.1799 168.752 30.0142 168.641 29.8434C168.409 29.4561 168.409 29.4561 168.409 29.2Z" fill="#9CFD00"/>
<path d="M73.492 29.2C76.0008 29.2 78.5097 29.2 81.0946 29.2C81.8709 31.5015 81.8709 31.5015 82.1232 32.5738C82.1787 32.8059 82.2341 33.038 82.2913 33.2772C82.3478 33.5166 82.4043 33.756 82.4625 34.0026C82.8962 35.8081 83.3503 37.5884 83.9033 39.3536C84.0744 39.9089 84.2236 40.4644 84.3631 41.0305C84.4859 41.7205 84.4859 41.7205 84.7807 42.007C85.6131 38.9424 86.4324 35.874 87.2317 32.7985C87.296 32.552 87.3603 32.3055 87.4265 32.0516C87.511 31.7262 87.511 31.7262 87.5972 31.3943C87.797 30.6582 88.0177 29.9294 88.2364 29.2C90.5932 29.2 92.95 29.2 95.3783 29.2C94.6008 32.0815 94.6008 32.0815 94.2149 33.1895C94.1287 33.4386 94.0425 33.6877 93.9536 33.9444C93.8622 34.2056 93.7707 34.4669 93.6765 34.736C93.5796 35.0153 93.4827 35.2945 93.3828 35.5823C93.0744 36.4702 92.7649 37.3576 92.4553 38.245C92.1511 39.1194 91.8471 39.994 91.5432 40.8686C91.3442 41.4411 91.1451 42.0134 90.9459 42.5858C90.0341 45.2068 89.1341 47.8326 88.2364 50.4596C85.6515 50.4596 83.0666 50.4596 80.4034 50.4596C80.1748 49.7745 79.9461 49.0894 79.7105 48.3835C79.4777 47.6865 79.2447 46.9895 79.0118 46.2925C78.8456 45.7951 78.6794 45.2977 78.5132 44.8002C77.6023 42.0735 76.6873 39.3486 75.7544 36.6311C75.6793 36.4121 75.6042 36.193 75.5269 35.9674C75.1701 34.9269 74.812 33.887 74.4521 32.8478C74.324 32.475 74.1959 32.1022 74.0679 31.7294C73.9796 31.4768 73.9796 31.4768 73.8896 31.2191C73.6448 30.503 73.492 29.9741 73.492 29.2Z" fill="#FDFDFD"/>
<path d="M193.982 42.5193C196.491 42.5193 199 42.5193 201.584 42.5193C201.584 45.1396 201.584 47.7599 201.584 50.4596C199.076 50.4596 196.567 50.4596 193.982 50.4596C193.982 47.8393 193.982 45.219 193.982 42.5193Z" fill="#9EFF00"/>
<path d="M38.4738 34.5789C39.563 35.2443 40.1964 36.0692 40.5473 37.3965C40.6227 38.1501 40.6326 38.896 40.6337 39.6537C40.6393 39.8507 40.645 40.0476 40.6508 40.2506C40.6575 41.7242 40.3565 42.8211 39.6258 44.0561C38.8907 44.8238 38.2578 45.055 37.2499 45.1607C36.2316 45.0648 35.7951 44.7826 35.0181 44.0561C34.0969 42.8353 34.2244 41.5027 34.2406 39.9899C34.2379 39.7419 34.2352 39.494 34.2325 39.2385C34.238 37.7444 34.3687 36.6632 35.0181 35.3474C35.9746 34.3483 37.2315 34.3122 38.4738 34.5789Z" fill="#030303"/>
<path d="M64.1471 34.0827C64.9527 34.76 65.2388 35.3479 65.659 36.3719C65.659 36.71 65.659 37.0481 65.659 37.3965C63.3021 37.3965 60.9453 37.3965 58.5171 37.3965C58.7538 35.8175 58.9344 35.4206 59.8994 34.3228C61.1644 33.4381 62.7692 33.6092 64.1471 34.0827Z" fill="#0A0A0A"/>
<path d="M157.812 33.8105C158.542 34.1738 159.032 34.5678 159.425 35.3474C159.501 36.0236 159.577 36.6998 159.655 37.3965C157.374 37.3965 155.093 37.3965 152.743 37.3965C153.005 35.3612 153.005 35.3612 154.126 34.3228C155.258 33.4835 156.492 33.6129 157.812 33.8105Z" fill="#050900"/>
</g>
<defs>
<clipPath id="clip0_2173_463">
<rect width="229" height="73" fill="white"/>
</clipPath>
</defs>
</svg>
