<svg width="26" height="26" viewBox="0 0 26 26" fill="none" xmlns="http://www.w3.org/2000/svg">
<path fill-rule="evenodd" clip-rule="evenodd" d="M24.5623 13C25.06 13 25.542 12.9332 26 12.808C25.6359 12.7313 25.2583 12.6909 24.8715 12.6909H18.4411C17.379 12.6909 16.3879 12.3865 15.5505 11.8603C15.7335 10.7886 16.2387 9.76126 17.066 8.93398L21.1758 4.82422C21.5277 4.47231 21.8213 4.0842 22.0567 3.67188C21.7448 3.87503 21.4494 4.11341 21.1758 4.38702L16.6288 8.93398C15.8778 9.68499 14.9618 10.1706 13.9976 10.3907C13.3692 9.50343 13 8.41972 13 7.24977V1.43771C13 0.940039 12.9332 0.457977 12.808 0C12.7313 0.364092 12.6909 0.741606 12.6909 1.12855V7.55893C12.6909 8.62101 12.3865 9.61204 11.8604 10.4496C10.7887 10.2665 9.76126 9.76124 8.93398 8.93396L4.82422 4.82422C4.47231 4.47231 4.0842 4.17868 3.67188 3.94334C3.87503 4.2551 4.11341 4.55061 4.38702 4.82422L8.93398 9.37118C9.68499 10.1222 10.1706 11.0381 10.3907 12.0024C9.50343 12.6307 8.41972 13 7.24977 13H1.43771C0.940037 13 0.457976 13.0668 0 13.192C0.364095 13.2687 0.74161 13.3091 1.12856 13.3091H7.55893C8.62103 13.3091 9.61204 13.6135 10.4496 14.1397C10.2665 15.2113 9.76126 16.2387 8.93398 17.066L4.82422 21.1758C4.47232 21.5277 4.17869 21.9158 3.94335 22.3281C4.25511 22.125 4.55061 21.8865 4.82422 21.613L9.37118 17.066C10.1222 16.315 11.0381 15.8294 12.0024 15.6092C12.6307 16.4966 13 17.5803 13 18.7503V24.5623C13 25.06 13.0668 25.542 13.192 26C13.2687 25.6359 13.3091 25.2583 13.3091 24.8715V18.441C13.3091 17.3789 13.6135 16.3879 14.1397 15.5505C15.2113 15.7335 16.2387 16.2387 17.066 17.066L21.1758 21.1758C21.5277 21.5277 21.9158 21.8213 22.3281 22.0567C22.125 21.7448 21.8865 21.4494 21.613 21.1758L17.066 16.6288C16.315 15.8778 15.8294 14.9618 15.6094 13.9976C16.4966 13.3692 17.5803 13 18.7503 13H24.5623Z" fill="#9EFF00"/>
</svg>
