<svg xmlns="http://www.w3.org/2000/svg" width="229" height="73" fill="none" viewBox="0 0 229 73"><g clip-path="url(#clip0_2173_463)"><path fill="#000" d="M0 0h229v73H0z"/><path fill="#9cfc00" d="M0 0h229v73H0zm5.299 4.867v64.547h218.863V4.867z"/><path fill="#fdfdfd" d="M40.547 21.26h7.142v29.2H41.7l-.46-2.05q-.115-.252-.23-.512l-.28.356c-1.26 1.51-2.848 2.617-4.74 2.77-2.561.04-4.6-.34-6.5-2.357-2.472-3.067-2.716-6.79-2.534-10.758.24-2.824.977-5.34 2.764-7.428 1.562-1.369 3.14-1.894 5.126-1.89l.523.002c2.057.05 3.345.718 4.949 2.144z"/><path fill="#9bfb00" d="M121.872 21.004h7.372l.231 9.989 1.152-1.025c.491-.315.491-.315.95-.56l.463-.251c1.723-.854 4.205-.813 6.013-.228 1.804.97 2.885 2.32 3.632 4.37.249.883.258 1.699.257 2.621v.98l-.004 1.053-.001 1.08q-.001 1.42-.006 2.84l-.004 2.9q-.004 2.843-.012 5.687h-7.141l-.018-2.972-.03-2.853q-.01-.99-.015-1.981-.008-1.425-.027-2.85l-.001-.893c-.026-1.586-.062-2.638-1.061-3.82a4.8 4.8 0 0 0-2.534-.256c-.756.53-1.117.966-1.613 1.793-.076.636-.076.636-.074 1.357l-.013.839-.009.905-.013.927q-.02 1.468-.035 2.936l-.027 1.989q-.033 2.439-.06 4.879h-7.372zm41.944 9.796c1.588 1.536 2.423 3.349 2.981 5.572l.23.768v4.099h-14.284c.292 2.297.292 2.297 1.383 3.842 1.133.789 2.396.629 3.686.512.827-.192.827-.192 1.382-.768l.691-2.05h7.142c-.251 2.515-.568 4.228-2.361 5.86-3.047 2.376-6.255 2.455-9.849 2.337l-.622-.014c-2.409-.168-4.83-1.418-6.52-3.316-2.26-3.115-2.59-6.62-2.304-10.502.503-2.912 1.953-5.24 4.147-6.915 4.188-2.429 10.356-2.537 14.298.576"/><path fill="#fbfbfb" d="m61.656 28.64.662-.01c3.176-.007 6.007.736 8.348 3.228 2.176 2.8 2.365 5.79 2.365 9.38H58.517c.374 2.419.374 2.419 1.728 4.05 1.388.524 2.729.503 4.133.049.805-.623.805-.623 1.511-2.562h6.912c0 2.28-.28 3.48-1.601 5.193-1.235 1.326-2.511 2.005-4.159 2.492l-.453.136c-1.377.382-2.695.466-4.111.456l-.677-.004c-3.13-.06-5.865-.928-8.207-3.342-1.974-2.347-2.264-4.828-2.29-7.908l-.02-.8c-.02-2.682.61-4.911 2.171-6.98 2.253-2.535 5.106-3.376 8.202-3.378"/><path fill="#9cfc00" d="M108.971 22.54h8.063c.019 4.958.019 4.958.023 7.08q.003 2.169.012 4.336.007 1.749.009 3.498.001.665.005 1.33c.019 3.5-.016 6.704-2.252 9.418-2.603 2.738-6.05 2.919-9.437 2.85-2.843-.13-5.341-1.15-7.323-3.474-1.547-2.193-1.59-4.275-1.771-7.108h7.602l.461 3.074c1.261.56 2.097.694 3.413.336.675-.45.736-.783.964-1.617.047-.66.072-1.295.074-1.956l.007-.583q.01-.95.015-1.9l.013-1.321q.017-1.736.03-3.47.017-2.085.039-4.168.029-3.162.053-6.325"/><path fill="#9cfd00" d="M168.409 29.2c7.43-.818 7.43-.818 9.192.499.952 1.21 1.503 2.596 1.926 4.125.13.548.13.548.632.755.323-.874.323-.874.589-1.77.408-1.49.929-2.803 2.176-3.609 2.558-.55 5.252-.246 7.833 0-.365 1.074-.808 1.837-1.455 2.738-1 1.414-1.97 2.85-2.923 4.306l-.393.594c-.935 1.328-.935 1.328-1.45 2.864.359.744.359.744.951 1.473l.647.882.35.474c.624.876 1.193 1.793 1.767 2.71l.697 1.106.335.533c.607.955 1.232 1.895 1.859 2.835.306.488.306.488.306.745-7.13.995-7.13.995-8.921-.284-1.564-1.56-2.392-3.964-3.059-6.12-.593.604-.988 1.25-1.406 2.011l-.399.725-.413.754-.815 1.483-.363.664c-.29.51-.29.51-.521.767-.597.022-1.189.03-1.786.025l-.541-.001-1.719-.008-1.162-.004-2.855-.012a95 95 0 0 1 2.923-4.643l.419-.634a126 126 0 0 1 2.055-3.02l.363-.524q.337-.485.685-.962c.344-.477.344-.477.697-1.231-.169-1.196-1.028-2.181-1.685-3.122l-.742-1.085-.393-.573c-.704-1.04-1.39-2.091-2.076-3.145l-.4-.61-.367-.565-.326-.503c-.232-.387-.232-.387-.232-.643"/><path fill="#fdfdfd" d="M73.492 29.2h7.603c.776 2.302.776 2.302 1.028 3.374l.168.703.172.726c.433 1.805.887 3.585 1.44 5.35.171.556.32 1.111.46 1.678.123.69.123.69.418.976a870 870 0 0 0 2.645-9.955l.171-.658c.2-.736.42-1.465.64-2.194h7.141c-.777 2.881-.777 2.881-1.163 3.99l-.261.754-.277.792a5645 5645 0 0 1-2.731 7.85c-.912 2.62-1.812 5.247-2.71 7.874h-7.833l-.693-2.077-.698-2.09-.499-1.493a1042 1042 0 0 0-4.06-11.952l-.385-1.119-.178-.51c-.245-.716-.398-1.245-.398-2.019"/><path fill="#9eff00" d="M193.982 42.52h7.602v7.94h-7.602z"/><path fill="#030303" d="M38.474 34.579c1.089.665 1.722 1.49 2.073 2.818.076.753.086 1.499.087 2.257l.017.597c.006 1.473-.295 2.57-1.025 3.805-.735.768-1.368.999-2.376 1.105-1.018-.096-1.455-.378-2.232-1.105-.921-1.22-.794-2.553-.777-4.066l-.008-.751c.005-1.495.136-2.576.785-3.892.957-.999 2.213-1.035 3.456-.768"/><path fill="#0a0a0a" d="M64.147 34.083c.806.677 1.092 1.265 1.512 2.289v1.025h-7.142c.237-1.58.417-1.976 1.382-3.074 1.265-.885 2.87-.714 4.248-.24"/><path fill="#050900" d="M157.812 33.81c.73.364 1.22.758 1.613 1.537l.23 2.05h-6.912c.262-2.036.262-2.036 1.383-3.074 1.132-.84 2.366-.71 3.686-.513"/></g><defs><clipPath id="clip0_2173_463"><path fill="#fff" d="M0 0h229v73H0z"/></clipPath></defs></svg>