<svg xmlns="http://www.w3.org/2000/svg" width="26" height="26" fill="none" viewBox="0 0 26 26"><path fill="#9eff00" fill-rule="evenodd" d="M24.562 13c.498 0 .98-.067 1.438-.192a5.5 5.5 0 0 0-1.128-.117h-6.43a5.4 5.4 0 0 1-2.892-.83 5.4 5.4 0 0 1 1.516-2.927l4.11-4.11a5.5 5.5 0 0 0 .88-1.152 5.5 5.5 0 0 0-.88.715l-4.547 4.547a5.4 5.4 0 0 1-2.631 1.457A5.4 5.4 0 0 1 13 7.25V1.438c0-.498-.067-.98-.192-1.438a5.5 5.5 0 0 0-.117 1.129v6.43a5.4 5.4 0 0 1-.83 2.89 5.4 5.4 0 0 1-2.927-1.515l-4.11-4.11a5.5 5.5 0 0 0-1.152-.88q.304.469.715.88l4.547 4.547a5.4 5.4 0 0 1 1.457 2.631A5.4 5.4 0 0 1 7.25 13H1.438c-.498 0-.98.067-1.438.192a5.5 5.5 0 0 0 1.129.117h6.43c1.062 0 2.053.305 2.89.83a5.4 5.4 0 0 1-1.515 2.927l-4.11 4.11c-.352.352-.645.74-.88 1.152q.469-.304.88-.715l4.547-4.547a5.4 5.4 0 0 1 2.631-1.457c.629.888.998 1.971.998 3.141v5.812c0 .498.067.98.192 1.438a5.5 5.5 0 0 0 .117-1.128V18.44c0-1.062.305-2.053.83-2.89a5.4 5.4 0 0 1 2.927 1.515l4.11 4.11c.352.352.74.645 1.152.88a5.5 5.5 0 0 0-.715-.88l-4.547-4.547a5.4 5.4 0 0 1-1.457-2.631A5.4 5.4 0 0 1 18.75 13z" clip-rule="evenodd"/></svg>